<?xml version="1.0" standalone="no"?>
<!DOCTYPE svg PUBLIC "-//W3C//DTD SVG 20010904//EN"
 "http://www.w3.org/TR/2001/REC-SVG-20010904/DTD/svg10.dtd">
<svg version="1.0" xmlns="http://www.w3.org/2000/svg"
 width="1600.000000pt" height="1600.000000pt" viewBox="0 0 1600.000000 1600.000000"
 preserveAspectRatio="xMidYMid meet">
<metadata>
Created by potrace 1.11, written by Peter Selinger 2001-2013
</metadata>
<g transform="translate(0.000000,1600.000000) scale(0.100000,-0.100000)"
fill="#000000" stroke="none">
<path d="M2762 13985 c-55 -17 -106 -56 -121 -93 -22 -53 0 -100 96 -204 114
-124 174 -210 240 -346 45 -94 66 -126 122 -182 69 -69 110 -92 353 -204 102
-46 167 -108 220 -208 24 -44 72 -119 108 -166 36 -48 89 -121 119 -162 30
-41 106 -138 171 -215 64 -77 171 -210 239 -296 67 -86 176 -214 242 -285 158
-169 208 -231 319 -399 83 -124 116 -162 289 -335 114 -113 220 -230 254 -277
158 -222 259 -499 302 -827 19 -151 19 -414 0 -556 -20 -141 -21 -186 -7 -462
7 -148 7 -240 1 -262 -15 -53 -53 -92 -124 -127 -76 -37 -138 -43 -610 -59
-347 -11 -393 -18 -596 -85 -168 -55 -274 -74 -453 -80 l-140 -5 -100 -46
c-75 -35 -136 -54 -239 -75 -154 -31 -204 -51 -271 -110 -35 -31 -46 -48 -46
-70 0 -51 -30 -105 -82 -149 -27 -24 -59 -57 -69 -74 -21 -34 -25 -99 -9 -140
5 -14 14 -63 20 -108 13 -110 36 -178 72 -222 52 -64 77 -71 220 -69 l128 2
31 -38 c38 -48 94 -66 179 -58 75 6 156 50 295 156 220 170 247 181 519 224
188 29 218 31 466 31 304 0 601 -28 750 -70 114 -33 360 -154 415 -205 54 -50
62 -73 75 -219 20 -238 22 -460 6 -726 -28 -451 -19 -855 24 -1065 53 -259
205 -591 360 -784 63 -79 74 -144 44 -259 -21 -78 -21 -257 0 -351 8 -38 26
-102 40 -142 39 -114 59 -230 60 -343 1 -91 -2 -111 -23 -153 -42 -86 -139
-137 -310 -162 -69 -11 -207 -15 -491 -16 -360 -1 -406 1 -513 20 -206 36
-333 24 -474 -45 -94 -47 -230 -158 -268 -219 -28 -45 -30 -55 -30 -144 0 -82
4 -103 25 -146 14 -28 40 -60 60 -74 38 -25 51 -25 305 -2 109 10 305 8 1510
-19 608 -14 1157 4 1300 41 31 8 59 31 125 100 52 54 100 95 124 105 32 13 97
16 395 18 288 2 365 6 403 18 54 18 326 213 443 317 160 144 278 169 456 97
86 -36 203 -106 274 -165 129 -108 233 -182 354 -254 336 -199 391 -229 462
-257 217 -84 609 -111 1059 -74 308 26 618 9 773 -42 28 -9 108 -42 177 -74
254 -116 317 -130 408 -84 239 119 179 418 -123 617 -153 100 -322 171 -510
214 -71 16 -137 18 -600 19 -670 1 -808 17 -1045 119 -179 77 -424 236 -498
324 -26 31 -75 87 -110 125 -128 140 -231 321 -290 506 -43 135 -59 224 -87
469 -35 306 -41 343 -90 556 -58 252 -75 342 -140 747 -60 369 -96 532 -175
783 -28 88 -100 322 -161 520 -61 198 -135 425 -166 505 -30 80 -150 339 -265
575 -164 333 -232 462 -304 570 -111 168 -188 323 -248 505 -58 173 -69 245
-56 347 11 77 86 311 204 632 74 201 103 322 121 514 25 255 74 377 254 636
175 250 262 454 282 658 28 295 19 265 127 463 80 147 119 312 129 546 7 156
3 184 -29 214 -27 24 -105 27 -166 6 -85 -30 -358 -216 -559 -381 -191 -157
-228 -164 -385 -80 -57 30 -165 87 -241 125 -105 54 -140 77 -147 96 -6 14
-10 68 -10 120 0 150 -30 231 -77 206 -20 -11 -133 -128 -203 -210 -42 -50
-49 -54 -105 -62 -79 -11 -131 -32 -243 -101 -122 -75 -164 -85 -291 -69 -54
7 -142 11 -195 8 -82 -4 -105 -10 -162 -38 -73 -36 -117 -86 -134 -154 -17
-64 -31 -96 -76 -171 -63 -104 -77 -158 -72 -263 5 -76 12 -102 57 -209 56
-133 76 -203 86 -300 9 -79 -8 -98 -92 -109 -218 -27 -324 12 -516 194 -51 48
-157 143 -236 212 -80 68 -179 156 -220 195 -42 38 -150 135 -241 215 -91 79
-230 208 -310 285 -167 162 -228 215 -360 312 -178 131 -408 272 -760 463
-205 112 -322 195 -442 313 -127 127 -186 160 -330 188 -114 22 -185 23 -246
4z"/>
</g>
</svg>
